<svg width="100" height="100" viewBox="0 0 100 100" fill="none" xmlns="http://www.w3.org/2000/svg">
<path d="M33.3333 100C42.5333 100 50 92.5333 50 83.3333V66.6666H33.3333C24.1333 66.6666 16.6667 74.1333 16.6667 83.3333C16.6667 92.5333 24.1333 100 33.3333 100Z" fill="#0ACF83"/>
<path d="M16.6667 50C16.6667 40.8 24.1333 33.3334 33.3333 33.3334H50V66.6667H33.3333C24.1333 66.6667 16.6667 59.2 16.6667 50Z" fill="#A259FF"/>
<path d="M16.6667 16.6667C16.6667 7.46667 24.1333 0 33.3333 0H50V33.3333H33.3333C24.1333 33.3333 16.6667 25.8667 16.6667 16.6667Z" fill="#F24E1E"/>
<path d="M50 0H66.6667C75.8667 0 83.3333 7.46667 83.3333 16.6667C83.3333 25.8667 75.8667 33.3333 66.6667 33.3333H50V0Z" fill="#FF7262"/>
<path d="M83.3333 50C83.3333 59.2 75.8667 66.6667 66.6667 66.6667C57.4667 66.6667 50 59.2 50 50C50 40.8 57.4667 33.3334 66.6667 33.3334C75.8667 33.3334 83.3333 40.8 83.3333 50Z" fill="#1ABCFE"/>
</svg>
